<mxfile host="63317195-d846-401b-aca0-f8a232346442" modified="2020-09-16T05:55:53.077Z" agent="5.0 (Windows NT 10.0; Win64; x64) AppleWebKit/537.36 (KHTML, like Gecko) Code/1.49.0 Chrome/83.0.4103.122 Electron/9.2.1 Safari/537.36" etag="thmg09djjs7BwOYD4YbH" version="13.1.3">
    <diagram id="6hGFLwfOUW9BJ-s0fimq" name="Page-1">
        <mxGraphModel dx="382" dy="792" grid="1" gridSize="10" guides="0" tooltips="1" connect="1" arrows="1" fold="1" page="1" pageScale="1" pageWidth="200" pageHeight="150" math="0" shadow="0">
            <root>
                <mxCell id="0"/>
                <mxCell id="1" parent="0"/>
                <mxCell id="99" value="&lt;table cellpadding=&quot;4&quot; cellspacing=&quot;0&quot; style=&quot;width: 100% ; height: 100% ; border: 1px solid rgb(0 , 0 , 0) ; border-collapse: collapse ; font-size: 14px ; background-color: rgb(255 , 255 , 255)&quot; border=&quot;1&quot;&gt;&lt;tbody&gt;&lt;tr style=&quot;line-height: 90%&quot;&gt;&lt;th&gt;&lt;font style=&quot;font-size: 16px&quot; color=&quot;#000000&quot;&gt;識別字&lt;/font&gt;&lt;/th&gt;&lt;th&gt;&lt;font style=&quot;font-size: 16px&quot; color=&quot;#000000&quot;&gt;記憶體地址&lt;/font&gt;&lt;/th&gt;&lt;/tr&gt;&lt;tr&gt;&lt;td&gt;&lt;br&gt;&lt;/td&gt;&lt;td&gt;&lt;/td&gt;&lt;/tr&gt;&lt;/tbody&gt;&lt;/table&gt; " style="verticalAlign=top;align=left;overflow=fill;fontSize=15;fontFamily=正黑體;html=1;strokeWidth=3;strokeColor=none;fillColor=none;" parent="1" vertex="1">
                    <mxGeometry x="20" y="50" width="160" height="60" as="geometry"/>
                </mxCell>
            </root>
        </mxGraphModel>
    </diagram>
</mxfile>